<svg width="24" height="25" viewBox="0 0 24 25" fill="none" xmlns="http://www.w3.org/2000/svg">
<path d="M13.3259 12.5001L23.7255 2.10047C24.0915 1.73432 24.0915 1.1407 23.7255 0.774605C23.3593 0.408512 22.7657 0.408465 22.3996 0.774605L12 11.1742L1.60047 0.774605C1.23433 0.408465 0.640698 0.408465 0.274606 0.774605C-0.0914884 1.14075 -0.0915354 1.73437 0.274606 2.10047L10.6741 12.5L0.274606 22.8996C-0.0915354 23.2658 -0.0915354 23.8594 0.274606 24.2255C0.457652 24.4085 0.697605 24.5 0.93756 24.5C1.17751 24.5 1.41742 24.4085 1.60051 24.2255L12 13.8259L22.3996 24.2255C22.5826 24.4085 22.8226 24.5 23.0625 24.5C23.3025 24.5 23.5424 24.4085 23.7255 24.2255C24.0915 23.8594 24.0915 23.2657 23.7255 22.8996L13.3259 12.5001Z" fill="#21BBD7"/>
</svg>