<svg width="143" height="75" viewBox="0 0 143 75" fill="none" xmlns="http://www.w3.org/2000/svg">
<g clip-path="url(#clip0_338_7592)">
<ellipse cx="71.4841" cy="39.9148" rx="71.7885" ry="32.3951" transform="rotate(-10.4821 71.4841 39.9148)" fill="#F9FDFF"/>
<path fill-rule="evenodd" clip-rule="evenodd" d="M66.5783 7.60077C105.683 0.747872 139.525 9.65807 142.151 27.4976C143.752 38.3694 133.391 50.0512 116.205 59.0703V16.9587H103.352H102.771V60.9428H108.063H108.644V21.6284H110.389V60.9428H112.453C102.116 65.8611 89.6802 69.8353 76.0913 72.2167C36.988 79.0688 3.14569 70.1587 0.519137 52.3193C-1.11866 41.1947 9.76774 29.2211 27.676 20.1211C27.6063 20.4443 27.5708 20.7788 27.5708 21.1234V57.5352C27.5708 58.3764 27.9295 59.1442 28.6467 59.8385C29.3641 60.5327 30.1492 60.9218 31.0022 61.0058C31.0796 61.0058 31.1573 61.0058 31.2348 61.0058C31.3125 61.0058 31.3899 61.0268 31.4674 61.0691H36.4692L37.0508 61.0058C38.2138 61.0058 39.1734 60.6273 39.9296 59.87C40.6857 59.1128 41.0637 58.2083 41.0637 57.1565V42.0113H35.7712H35.1895V55.3895C35.1895 55.6419 35.1025 55.8523 34.928 56.0206C34.7535 56.1889 34.5498 56.315 34.3172 56.3993C34.0846 56.3571 33.8811 56.2414 33.7066 56.0523C33.5321 55.8629 33.4449 55.6209 33.4449 55.3265V22.4487C33.4449 22.1122 33.5321 21.8598 33.7066 21.6915C33.8811 21.5231 34.0846 21.4181 34.3172 21.3761C34.5498 21.4181 34.7535 21.5231 34.928 21.6915C35.1025 21.8598 35.1895 22.1122 35.1895 22.4487V31.5358H40.4821H41.0637V21.1234C41.0637 19.9036 40.647 18.8413 39.8132 17.9369C38.9796 17.0323 38.02 16.58 36.9344 16.58H35.3551C44.5779 12.7205 55.1717 9.59979 66.5783 7.60077ZM48.6825 37.4045L52.0558 16.9587H52.6374H57.4064V60.9428H56.8248H52.1139V39.2978L48.7408 60.9428H48.1592H43.3902V16.9587H43.9716H48.6825V37.4045ZM60.4306 16.9587H65.7231V34.3126H67.4679V16.9587H68.0496H73.2838V60.9428H72.7022H67.4679V38.9191H65.7231V60.9428H65.1415H59.8491V16.9587H60.4306ZM77.1804 21.6284H74.6796V16.9587H75.2613H85.5554V21.6284H83.0546V60.9428H82.4729H77.1804V21.6284ZM94.5698 38.9191H91.2548V34.3126H94.5698V22.8904C94.5698 22.4277 94.4828 22.0702 94.3083 21.8178C94.1338 21.5652 93.9301 21.4181 93.6975 21.3761C93.4649 21.4181 93.2615 21.5652 93.087 21.8178C92.9124 22.0702 92.8252 22.4277 92.8252 22.8904V31.5358H92.2435H87.0093V21.5022C87.0093 20.24 87.4164 19.1041 88.2307 18.0946C89.0449 17.0848 90.0918 16.58 91.3712 16.58H91.9528H96.4892C97.4973 16.58 98.4084 17.0217 99.2226 17.9052C100.037 18.7887 100.444 19.8825 100.444 21.1867V57.0302C100.444 57.1565 100.434 57.2932 100.415 57.4405C100.395 57.5876 100.367 57.7245 100.328 57.8506C100.095 58.608 99.6297 59.3125 98.9319 59.9646C98.2339 60.6167 97.4973 60.9638 96.7218 61.0058C96.6831 61.0058 96.654 61.0058 96.6346 61.0058C96.6152 61.0058 96.5861 61.0058 96.5473 61.0058L95.9657 61.0691H91.0222C89.8591 61.0268 88.8994 60.6061 88.1434 59.8069C87.3873 59.0075 87.0093 58.082 87.0093 57.0302V42.516H87.5908H92.8252V55.2634C92.8252 55.5579 92.9124 55.8102 93.087 56.0206C93.2615 56.231 93.4649 56.3571 93.6975 56.3993C93.9301 56.315 94.1338 56.1889 94.3083 56.0206C94.4828 55.8523 94.5698 55.6209 94.5698 55.3265V38.9191ZM11.7047 65.2401H10.9269V64.0961L10.1187 65.2401H9.33671V62.9146H10.1146V64.0736L10.931 62.9146H11.7047V65.2401ZM15.8843 65.2401H15.0602V64.3609H14.3127V65.2401H13.488V62.9146H14.3127V63.71H15.0602V62.9146H15.8843V65.2401ZM19.4474 63.5656H18.8516V65.2401H18.0275V63.5656H17.4317V62.9146H19.4474V63.5656ZM23.3525 64.2973H21.7044C21.7189 64.441 21.7547 64.5472 21.8113 64.6176C21.8906 64.7186 21.9947 64.7687 22.1223 64.7687C22.203 64.7687 22.2802 64.747 22.3526 64.7029C22.3974 64.6752 22.445 64.6266 22.496 64.5562L23.3063 64.637C23.1821 64.8712 23.0332 65.0388 22.858 65.1406C22.6829 65.2416 22.4319 65.2925 22.1043 65.2925C21.8202 65.2925 21.5968 65.2491 21.4334 65.1623C21.2706 65.0755 21.1355 64.9371 21.0286 64.7478C20.9217 64.5585 20.8679 64.3363 20.8679 64.0804C20.8679 63.7167 20.9755 63.4219 21.19 63.1975C21.4051 62.9723 21.7016 62.8593 22.0802 62.8593C22.3871 62.8593 22.6298 62.9101 22.807 63.0112C22.9849 63.1114 23.1208 63.2581 23.2132 63.4489C23.3063 63.6404 23.3525 63.8896 23.3525 64.1963V64.2973ZM22.5167 63.8701C22.5002 63.6973 22.4574 63.5738 22.3884 63.4997C22.3188 63.4249 22.2278 63.3875 22.1147 63.3875C21.9837 63.3875 21.8795 63.4444 21.8009 63.5566C21.7513 63.6269 21.7196 63.7309 21.7065 63.8701H22.5167ZM27.4258 65.2401H26.6032V63.5656H25.9791V64.5405C25.9791 64.8009 25.9302 64.9939 25.8329 65.1196C25.735 65.2453 25.5854 65.3082 25.3833 65.3082C25.1544 65.3082 24.9489 65.2857 24.7668 65.2401V64.5802C24.8641 64.6123 24.9379 64.6288 24.9889 64.6288C25.0999 64.6288 25.1551 64.539 25.1551 64.3609V62.9146H27.4258V65.2401ZM31.6178 65.2401H30.7951V63.5656H30.1711V64.5405C30.1711 64.8009 30.1221 64.9939 30.0249 65.1196C29.927 65.2453 29.7774 65.3082 29.5753 65.3082C29.3464 65.3082 29.1409 65.2857 28.9588 65.2401V64.5802C29.0561 64.6123 29.1298 64.6288 29.1809 64.6288C29.2919 64.6288 29.347 64.539 29.347 64.3609V62.9146H31.6178V65.2401ZM35.7264 64.2973H34.0783C34.0928 64.441 34.1286 64.5472 34.1852 64.6176C34.2645 64.7186 34.3686 64.7687 34.4962 64.7687C34.5768 64.7687 34.6541 64.747 34.7265 64.7029C34.7713 64.6752 34.8189 64.6266 34.8699 64.5562L35.6802 64.637C35.556 64.8712 35.4071 65.0388 35.2319 65.1406C35.0568 65.2416 34.8058 65.2925 34.4782 65.2925C34.1941 65.2925 33.9707 65.2491 33.8073 65.1623C33.6445 65.0755 33.5094 64.9371 33.4025 64.7478C33.2956 64.5585 33.2418 64.3363 33.2418 64.0804C33.2418 63.7167 33.3494 63.4219 33.5638 63.1975C33.779 62.9723 34.0755 62.8593 34.4541 62.8593C34.761 62.8593 35.0037 62.9101 35.1809 63.0112C35.3588 63.1114 35.4947 63.2581 35.5871 63.4489C35.6802 63.6404 35.7264 63.8896 35.7264 64.1963V64.2973ZM34.8906 63.8701C34.8741 63.6973 34.8313 63.5738 34.7623 63.4997C34.6927 63.4249 34.6017 63.3875 34.4886 63.3875C34.3576 63.3875 34.2534 63.4444 34.1748 63.5566C34.1252 63.6269 34.0934 63.7309 34.0803 63.8701H34.8906ZM39.7225 65.2401H38.7957L38.4799 64.5981C38.4302 64.4956 38.3813 64.4313 38.3337 64.4051C38.2861 64.3789 38.2268 64.3654 38.1572 64.3654V65.2401H37.3345V62.9146H38.1572V63.7541C38.224 63.7466 38.2744 63.7227 38.3068 63.6816C38.3385 63.6404 38.3854 63.5506 38.4468 63.4122C38.5082 63.273 38.5633 63.1713 38.6116 63.1069C38.6599 63.0426 38.7219 62.9947 38.7971 62.9625C38.8729 62.9303 38.9674 62.9101 39.0805 62.9012C39.1936 62.8922 39.3618 62.8877 39.5853 62.8877V63.5214H39.5487C39.4384 63.5214 39.3543 63.5259 39.2963 63.5357C39.2384 63.5454 39.1922 63.5656 39.1571 63.5963C39.1219 63.6269 39.0819 63.6898 39.0357 63.7848C38.9902 63.8798 38.9522 63.9457 38.9219 63.9831C38.8916 64.0205 38.8467 64.0452 38.7874 64.0587C38.9019 64.0706 38.9902 64.0968 39.0522 64.1387C39.1136 64.1799 39.2074 64.3145 39.3329 64.5405L39.7225 65.2401ZM43.0297 63.5656H42.434V65.2401H41.6099V63.5656H41.0141V62.9146H43.0297V63.5656ZM44.3152 62.9124H45.1833L45.626 64.4619L46.0364 62.9124H46.8466L45.9957 65.4002C45.8991 65.6838 45.7998 65.8753 45.6985 65.9741C45.5557 66.1148 45.3385 66.1851 45.0461 66.1851C44.9275 66.1851 44.7448 66.1671 44.4965 66.132L44.4324 65.5095C44.5503 65.5506 44.6827 65.5708 44.8282 65.5708C44.9248 65.5708 45.0034 65.5469 45.0634 65.499C45.1233 65.4504 45.1744 65.3643 45.2158 65.2401L44.3152 62.9124ZM49.0602 63.6658L48.2748 63.5761C48.3044 63.4272 48.3472 63.3097 48.403 63.2244C48.4589 63.1391 48.5389 63.065 48.6444 63.0022C48.7195 62.9565 48.8237 62.9214 48.9554 62.8967C49.0871 62.872 49.2298 62.8593 49.3836 62.8593C49.6298 62.8593 49.8284 62.8742 49.9773 62.9041C50.127 62.9341 50.2518 62.9969 50.3511 63.092C50.4214 63.1578 50.4766 63.2506 50.5173 63.3711C50.5572 63.4922 50.5772 63.6067 50.5772 63.7167V64.7448C50.5772 64.854 50.5841 64.9401 50.5966 65.0022C50.6097 65.0643 50.6372 65.1436 50.6807 65.2401H49.9091C49.878 65.1802 49.858 65.1346 49.8484 65.1032C49.8387 65.0717 49.8298 65.0224 49.8201 64.955C49.7125 65.068 49.605 65.1481 49.4988 65.196C49.3533 65.2603 49.1843 65.2925 48.9919 65.2925C48.7361 65.2925 48.5416 65.2281 48.4085 65.0994C48.2761 64.9715 48.2099 64.8129 48.2099 64.6243C48.2099 64.447 48.2575 64.3018 48.3534 64.1881C48.4492 64.0736 48.6251 63.9891 48.8823 63.9337C49.1912 63.8664 49.3912 63.8192 49.4829 63.7923C49.5739 63.7654 49.6712 63.7294 49.7732 63.686C49.7732 63.5761 49.7525 63.4997 49.7111 63.4556C49.6691 63.4122 49.596 63.3897 49.4905 63.3897C49.356 63.3897 49.2553 63.4137 49.1878 63.4601C49.1353 63.4967 49.0926 63.5656 49.0602 63.6658ZM49.7732 64.135C49.6601 64.1791 49.5422 64.218 49.4201 64.2517C49.2533 64.2996 49.1471 64.3475 49.1029 64.3939C49.0567 64.4425 49.034 64.4971 49.034 64.5585C49.034 64.6288 49.0567 64.6857 49.1016 64.7306C49.1471 64.7747 49.2133 64.7971 49.3008 64.7971C49.3926 64.7971 49.4774 64.7732 49.5567 64.7253C49.6353 64.6767 49.6911 64.6176 49.7243 64.5488C49.7573 64.4792 49.7732 64.3886 49.7732 64.2779V64.135ZM54.7658 65.2401H53.9431V63.5656H53.3191V64.5405C53.3191 64.8009 53.2701 64.9939 53.1729 65.1196C53.0749 65.2453 52.9253 65.3082 52.7233 65.3082C52.4943 65.3082 52.2888 65.2857 52.1068 65.2401V64.5802C52.204 64.6123 52.2778 64.6288 52.3288 64.6288C52.4398 64.6288 52.495 64.539 52.495 64.3609V62.9146H54.7658V65.2401ZM57.3455 63.7407H57.7213C58.3558 63.7407 58.6723 63.9921 58.6723 64.4949C58.6723 64.9917 58.3634 65.2401 57.7455 65.2401H56.5208V62.9146H57.3455V63.7407ZM57.3455 64.6924H57.6138C57.6814 64.6924 57.7365 64.6752 57.7786 64.6415C57.8213 64.6079 57.842 64.5592 57.842 64.4949C57.842 64.3542 57.7662 64.2846 57.6138 64.2846H57.3455V64.6924ZM62.7174 65.2401H61.8933V64.3609H61.1458V65.2401H60.3211V62.9146H61.1458V63.71H61.8933V62.9146H62.7174V65.2401ZM65.3254 63.7407H65.7012C66.3356 63.7407 66.6521 63.9921 66.6521 64.4949C66.6521 64.9917 66.3432 65.2401 65.7253 65.2401H64.5007V62.9146H65.3254V63.7407ZM65.3254 64.6924H65.5936C65.6612 64.6924 65.7164 64.6752 65.7584 64.6415C65.8012 64.6079 65.8219 64.5592 65.8219 64.4949C65.8219 64.3542 65.746 64.2846 65.5936 64.2846H65.3254V64.6924ZM66.8866 62.9124H67.7092V65.2401H66.8866V62.9124ZM71.8461 64.2973H70.198C70.2125 64.441 70.2483 64.5472 70.3049 64.6176C70.3842 64.7186 70.4883 64.7687 70.6159 64.7687C70.6965 64.7687 70.7738 64.747 70.8462 64.7029C70.891 64.6752 70.9386 64.6266 70.9896 64.5562L71.7999 64.637C71.6757 64.8712 71.5268 65.0388 71.3516 65.1406C71.1765 65.2416 70.9255 65.2925 70.5979 65.2925C70.3138 65.2925 70.0904 65.2491 69.927 65.1623C69.7642 65.0755 69.6291 64.9371 69.5222 64.7478C69.4153 64.5585 69.3615 64.3363 69.3615 64.0804C69.3615 63.7167 69.4691 63.4219 69.6836 63.1975C69.8987 62.9723 70.1952 62.8593 70.5738 62.8593C70.8807 62.8593 71.1234 62.9101 71.3006 63.0112C71.4785 63.1114 71.6144 63.2581 71.7068 63.4489C71.7999 63.6404 71.8461 63.8896 71.8461 64.1963V64.2973ZM71.0103 63.8701C70.9937 63.6973 70.951 63.5738 70.882 63.4997C70.8124 63.4249 70.7214 63.3875 70.6083 63.3875C70.4773 63.3875 70.3731 63.4444 70.2945 63.5566C70.2449 63.6269 70.2131 63.7309 70.2001 63.8701H71.0103ZM76.4345 64.3303L77.2158 64.4268C77.1731 64.6034 77.1021 64.7567 77.0041 64.8862C76.9055 65.0156 76.78 65.1159 76.6269 65.1877C76.4745 65.2588 76.2801 65.2947 76.0442 65.2947C75.8167 65.2947 75.627 65.2715 75.476 65.2259C75.3243 65.1795 75.194 65.1054 75.0851 65.0022C74.9754 64.8989 74.8899 64.7784 74.8285 64.6393C74.7665 64.5009 74.7354 64.3168 74.7354 64.0871C74.7354 63.8477 74.7727 63.6479 74.8485 63.4885C74.9037 63.3718 74.9789 63.267 75.0747 63.1743C75.1706 63.0815 75.2685 63.0119 75.3699 62.967C75.5298 62.8952 75.7353 62.8593 75.9856 62.8593C76.3359 62.8593 76.6028 62.9274 76.7869 63.0635C76.9703 63.1989 77.1 63.398 77.1738 63.6599L76.4001 63.7713C76.3759 63.6718 76.3318 63.597 76.2677 63.5469C76.2035 63.496 76.118 63.4713 76.0098 63.4713C75.8739 63.4713 75.7636 63.5244 75.6795 63.6299C75.5953 63.7362 75.5533 63.8963 75.5533 64.111C75.5533 64.3026 75.5953 64.4477 75.6788 64.5472C75.7622 64.6468 75.8684 64.6961 75.998 64.6961C76.1056 64.6961 76.196 64.6662 76.2697 64.6063C76.3428 64.5465 76.398 64.4545 76.4345 64.3303ZM81.2202 65.2401H80.4424V64.0961L79.6342 65.2401H78.8522V62.9146H79.6301V64.0736L80.4465 62.9146H81.2202V65.2401ZM84.5758 64.3303L85.3571 64.4268C85.3143 64.6034 85.2433 64.7567 85.1454 64.8862C85.0468 65.0156 84.9212 65.1159 84.7682 65.1877C84.6158 65.2588 84.4213 65.2947 84.1855 65.2947C83.9579 65.2947 83.7683 65.2715 83.6173 65.2259C83.4656 65.1795 83.3352 65.1054 83.2263 65.0022C83.1166 64.8989 83.0311 64.7784 82.9697 64.6393C82.9077 64.5009 82.8767 64.3168 82.8767 64.0871C82.8767 63.8477 82.9139 63.6479 82.9897 63.4885C83.0449 63.3718 83.1201 63.267 83.2159 63.1743C83.3118 63.0815 83.4097 63.0119 83.5111 62.967C83.671 62.8952 83.8765 62.8593 84.1268 62.8593C84.4772 62.8593 84.744 62.9274 84.9281 63.0635C85.1116 63.1989 85.2412 63.398 85.315 63.6599L84.5413 63.7713C84.5172 63.6718 84.473 63.597 84.4089 63.5469C84.3448 63.496 84.2593 63.4713 84.151 63.4713C84.0151 63.4713 83.9048 63.5244 83.8207 63.6299C83.7365 63.7362 83.6945 63.8963 83.6945 64.111C83.6945 64.3026 83.7365 64.4477 83.82 64.5472C83.9034 64.6468 84.0096 64.6961 84.1393 64.6961C84.2468 64.6961 84.3372 64.6662 84.411 64.6063C84.4841 64.5465 84.5392 64.4545 84.5758 64.3303ZM88.7733 63.5656H88.1775V65.2401H87.3534V63.5656H86.7576V62.9146H88.7733V63.5656ZM92.6784 64.2973H91.0303C91.0448 64.441 91.0806 64.5472 91.1372 64.6176C91.2165 64.7186 91.3206 64.7687 91.4482 64.7687C91.5289 64.7687 91.6061 64.747 91.6785 64.7029C91.7233 64.6752 91.7709 64.6266 91.8219 64.5562L92.6322 64.637C92.5081 64.8712 92.3591 65.0388 92.184 65.1406C92.0088 65.2416 91.7578 65.2925 91.4302 65.2925C91.1461 65.2925 90.9227 65.2491 90.7593 65.1623C90.5965 65.0755 90.4614 64.9371 90.3545 64.7478C90.2476 64.5585 90.1938 64.3363 90.1938 64.0804C90.1938 63.7167 90.3014 63.4219 90.5159 63.1975C90.731 62.9723 91.0275 62.8593 91.4061 62.8593C91.713 62.8593 91.9557 62.9101 92.1329 63.0112C92.3108 63.1114 92.4467 63.2581 92.5391 63.4489C92.6322 63.6404 92.6784 63.8896 92.6784 64.1963V64.2973ZM91.8426 63.8701C91.8261 63.6973 91.7833 63.5738 91.7144 63.4997C91.6447 63.4249 91.5537 63.3875 91.4406 63.3875C91.3096 63.3875 91.2054 63.4444 91.1268 63.5566C91.0772 63.6269 91.0455 63.7309 91.0324 63.8701H91.8426ZM97.2607 65.2401H96.5656V63.7803L96.0566 65.2401H95.5615L95.0099 63.7803V65.2401H94.3148V62.9146H95.2967L95.8098 64.2517L96.2808 62.9146H97.2607V65.2401ZM99.8708 63.7407H100.247C100.881 63.7407 101.197 63.9921 101.197 64.4949C101.197 64.9917 100.889 65.2401 100.271 65.2401H99.046V62.9146H99.8708V63.7407ZM99.8708 64.6924H100.139C100.207 64.6924 100.262 64.6752 100.304 64.6415C100.347 64.6079 100.367 64.5592 100.367 64.4949C100.367 64.3542 100.291 64.2846 100.139 64.2846H99.8708V64.6924ZM101.432 62.9124H102.255V65.2401H101.432V62.9124ZM109.607 0.741272C112.825 0.741272 115.435 3.57344 115.435 7.06575C115.435 10.5581 112.825 13.3902 109.607 13.3902C106.388 13.3902 103.778 10.5581 103.778 7.06575C103.778 3.57344 106.388 0.741272 109.607 0.741272Z" fill="url(#paint0_linear_338_7592)"/>
<path fill-rule="evenodd" clip-rule="evenodd" d="M103.888 5.83459C107.971 6.23089 111.829 6.8396 115.411 7.64715C115.427 7.45565 115.436 7.26174 115.436 7.06572C115.436 3.5734 112.825 0.741272 109.607 0.741272C106.776 0.741272 104.417 2.93138 103.888 5.83459Z" fill="#21BBD7"/>
</g>
<defs>
<linearGradient id="paint0_linear_338_7592" x1="119.725" y1="-53.2798" x2="-20.6879" y2="-13.0482" gradientUnits="userSpaceOnUse">
<stop stop-color="#21BBD7"/>
<stop offset="0.867568" stop-color="#082664"/>
<stop offset="1" stop-color="#082664"/>
</linearGradient>
<clipPath id="clip0_338_7592">
<rect width="143" height="75" fill="white"/>
</clipPath>
</defs>
</svg>
